<svg width="14" height="10" viewBox="0 0 14 10" fill="none" xmlns="http://www.w3.org/2000/svg">
<path fill-rule="evenodd" clip-rule="evenodd" d="M0.176 1.57583C0.0639991 1.42 -5.40928e-08 1.2375 -4.56056e-08 1.04333C-2.04351e-08 0.467499 0.561 -5.87437e-07 1.252 -5.57233e-07L12.748 -5.47267e-08C13.439 -2.45221e-08 14 0.4675 14 1.04333C14 1.245 13.931 1.43417 13.811 1.59417L8.119 9.445C7.903 9.77583 7.483 10 7 10C6.558 10 6.169 9.8125 5.941 9.52667C5.919 9.50083 5.9 9.47333 5.881 9.445L0.183 1.58667C0.181 1.58333 0.177999 1.57917 0.176 1.57583Z" fill="white"/>
</svg>
