<svg width="50" height="50" viewBox="0 0 50 50" fill="none" xmlns="http://www.w3.org/2000/svg">
<circle cx="25" cy="25" r="24" stroke="#0860F8" stroke-width="2"/>
<path fill-rule="evenodd" clip-rule="evenodd" d="M25.452 14.5024C25.7962 14.0955 26.3502 13.9014 26.8942 14.0495C27.6492 14.2551 28.0983 15.0444 27.8958 15.8108L26.0824 22.6245H31.5833C32.3653 22.6245 33 23.2686 33 24.0623C33 24.4131 32.8767 24.7338 32.6713 24.9839L23.5437 36.4475C23.2052 36.8875 22.6272 37.1046 22.0605 36.9507C21.3054 36.7466 20.8563 35.9572 21.0589 35.1909L22.8722 28.3757H17.4167C16.6347 28.3757 16 27.7316 16 26.9379C16 26.5914 16.1204 26.2736 16.3216 26.0263L25.3897 14.58C25.4095 14.5527 25.4307 14.5268 25.452 14.5024Z" fill="#0860F8"/>
</svg>
