<svg width="50" height="50" viewBox="0 0 50 50" fill="none" xmlns="http://www.w3.org/2000/svg">
<circle cx="25" cy="25" r="24" stroke="#0860F8" stroke-width="2"/>
<path fill-rule="evenodd" clip-rule="evenodd" d="M34 20.4333V30.5667C34 33.0139 29.9667 35 25 35C20.0333 35 16 33.0139 16 30.5667V20.4333C16 17.9861 20.0333 16 25 16C29.9667 16 34 17.9861 34 20.4333ZM25 28.3234C28.4946 28.3234 31.3309 29.3291 31.3309 30.5667C31.3309 31.8042 28.4946 32.8099 25 32.8099C21.5054 32.8099 18.6691 31.8042 18.6691 30.5667C18.6691 29.3291 21.5054 28.3234 25 28.3234ZM25.6429 18.5333H24.3571C24.0023 18.5333 23.7143 18.8171 23.7143 19.1667V21.0667H21.7857C21.4309 21.0667 21.1429 21.3504 21.1429 21.7V22.9667C21.1429 23.3163 21.4309 23.6 21.7857 23.6H23.7143V25.5C23.7143 25.8496 24.0023 26.1333 24.3571 26.1333H25.6429C25.9977 26.1333 26.2857 25.8496 26.2857 25.5V23.6H28.2143C28.5691 23.6 28.8571 23.3163 28.8571 22.9667V21.7C28.8571 21.3504 28.5691 21.0667 28.2143 21.0667H26.2857V19.1667C26.2857 18.8171 25.9977 18.5333 25.6429 18.5333Z" fill="#0860F8"/>
</svg>
