<svg width="50" height="50" viewBox="0 0 50 50" fill="none" xmlns="http://www.w3.org/2000/svg">
<circle cx="25" cy="25" r="24" stroke="#0860F8" stroke-width="2"/>
<path fill-rule="evenodd" clip-rule="evenodd" d="M22.8842 14.8833C23.2398 14.3326 23.8479 14 24.5 14C25.1521 14 25.7602 14.3326 26.1158 14.8833C26.2682 15.1221 26.4178 15.3526 26.5537 15.5637C26.9395 16.1641 27.6918 16.4098 28.3562 16.1531C28.5896 16.062 28.8449 15.9626 29.1072 15.8605C29.7167 15.6245 30.4031 15.7156 30.9316 16.1006C31.4588 16.4871 31.7567 17.1151 31.721 17.7706C31.7059 18.0536 31.6908 18.3282 31.6784 18.5794C31.64 19.293 32.104 19.9375 32.7918 20.1211C33.0334 20.1859 33.2983 20.2563 33.5702 20.3295C34.2017 20.4979 34.7041 20.9768 34.9059 21.6006C35.1077 22.2245 34.98 22.909 34.5696 23.4183C34.3911 23.6378 34.2181 23.8517 34.0603 24.0477C33.6127 24.6025 33.6127 25.3975 34.0603 25.9523C34.2181 26.1483 34.3911 26.3622 34.5696 26.5817C34.98 27.091 35.1077 27.7755 34.9059 28.3994C34.7041 29.0232 34.2017 29.5021 33.5702 29.6705C33.2983 29.7437 33.0334 29.8141 32.7918 29.8789C32.104 30.0625 31.64 30.707 31.6784 31.4206C31.6908 31.6718 31.7059 31.9464 31.721 32.2294C31.7567 32.8849 31.4588 33.5129 30.9316 33.8994C30.4031 34.2844 29.7167 34.3755 29.1072 34.1395C28.8449 34.0374 28.5896 33.938 28.3562 33.8469C27.6918 33.5902 26.9395 33.8359 26.5537 34.4363C26.4178 34.6474 26.2682 34.8779 26.1158 35.1167C25.7602 35.6674 25.1521 36 24.5 36C23.8479 36 23.2398 35.6674 22.8842 35.1167C22.7318 34.8779 22.5822 34.6474 22.4463 34.4363C22.0605 33.8359 21.3082 33.5902 20.6438 33.8469C20.4104 33.938 20.1551 34.0374 19.8928 34.1395C19.2833 34.3755 18.5969 34.2844 18.0684 33.8994C17.5412 33.5129 17.2433 32.8849 17.279 32.2294C17.2941 31.9464 17.3092 31.6718 17.3216 31.4206C17.36 30.707 16.896 30.0625 16.2082 29.8789C15.9666 29.8141 15.7017 29.7437 15.4298 29.6705C14.7983 29.5021 14.2959 29.0232 14.0941 28.3994C13.8923 27.7755 14.02 27.091 14.4304 26.5817C14.6089 26.3622 14.7819 26.1483 14.9397 25.9523C15.3873 25.3975 15.3873 24.6025 14.9397 24.0477C14.7819 23.8517 14.6089 23.6378 14.4304 23.4183C14.02 22.909 13.8923 22.2245 14.0941 21.6006C14.2959 20.9768 14.7983 20.4979 15.4298 20.3295C15.7017 20.2563 15.9666 20.1859 16.2082 20.1211C16.896 19.9375 17.36 19.293 17.3216 18.5794C17.3092 18.3282 17.2941 18.0536 17.279 17.7706C17.2433 17.1151 17.5412 16.4871 18.0684 16.1006C18.5969 15.7156 19.2833 15.6245 19.8928 15.8605C20.1551 15.9626 20.4104 16.062 20.6438 16.1531C21.3082 16.4098 22.0605 16.1641 22.4463 15.5637C22.5822 15.3526 22.7318 15.1221 22.8842 14.8833ZM28.0117 20.2619C27.5325 19.9003 26.8516 19.9996 26.492 20.4813L20.652 28.3262C20.2923 28.8093 20.3898 29.4939 20.8703 29.8541C21.3494 30.2157 22.0317 30.1177 22.39 29.6346L28.2313 21.7897C28.5896 21.308 28.4921 20.6235 28.0117 20.2619ZM28.0117 24.9986C29.3913 24.9986 30.5115 26.1248 30.5115 27.5119C30.5115 28.899 29.3913 30.0252 28.0117 30.0252C26.6333 30.0252 25.5131 28.899 25.5131 27.5119C25.5131 26.1248 26.6333 24.9986 28.0117 24.9986ZM28.0117 26.7763C28.4153 26.7763 28.7434 27.1061 28.7434 27.5119C28.7434 27.9177 28.4153 28.2476 28.0117 28.2476C27.608 28.2476 27.2813 27.9177 27.2813 27.5119C27.2813 27.1061 27.608 26.7763 28.0117 26.7763ZM20.8703 19.9734C22.25 19.9734 23.3702 21.0996 23.3702 22.4867C23.3702 23.8724 22.25 24.9986 20.8703 24.9986C19.4906 24.9986 18.3704 23.8724 18.3704 22.4867C18.3704 21.0996 19.4906 19.9734 20.8703 19.9734ZM20.8703 21.7511C21.2739 21.7511 21.6006 22.0809 21.6006 22.4867C21.6006 22.8911 21.2739 23.221 20.8703 23.221C20.4667 23.221 20.1386 22.8911 20.1386 22.4867C20.1386 22.0809 20.4667 21.7511 20.8703 21.7511Z" fill="#0860F8"/>
</svg>
