<svg width="50" height="50" viewBox="0 0 50 50" fill="none" xmlns="http://www.w3.org/2000/svg">
<circle cx="25" cy="25" r="24" stroke="#0860F8" stroke-width="2"/>
<path fill-rule="evenodd" clip-rule="evenodd" d="M22.984 25.3307C21.7973 24.6459 21 23.3762 21 21.9252V18.943C21 16.7665 22.792 15 25 15C27.208 15 29 16.7665 29 18.943V21.9252C29 23.3762 28.2027 24.6459 27.016 25.3307V26.3769C30.32 26.3848 33 29.0318 33 32.2914V32.6857C33 33.4112 32.4027 34 31.6667 34H18.3333C17.5973 34 17 33.4112 17 32.6857V32.2914C17 29.0318 19.68 26.3848 22.984 26.3769V25.3307Z" fill="#0860F8"/>
</svg>
